<svg width="136" height="42" viewBox="0 0 136 42" fill="none" xmlns="http://www.w3.org/2000/svg">
<g filter="url(#filter0_i)">
<path d="M30.3587 41H27.1187V34.7H30.3587C30.8627 34.7 31.2887 34.862 31.6367 35.186C31.9847 35.51 32.1587 35.918 32.1587 36.41C32.1587 36.608 32.1287 36.794 32.0687 36.968C32.0087 37.136 31.9367 37.274 31.8527 37.382C31.7747 37.484 31.6937 37.574 31.6097 37.652C31.5257 37.724 31.4537 37.775 31.3937 37.805L31.3037 37.85C31.3277 37.862 31.3577 37.88 31.3937 37.904C31.4357 37.922 31.5047 37.973 31.6007 38.057C31.6967 38.135 31.7807 38.225 31.8527 38.327C31.9307 38.429 31.9997 38.567 32.0597 38.741C32.1257 38.909 32.1587 39.092 32.1587 39.29C32.1587 39.782 31.9847 40.19 31.6367 40.514C31.2887 40.838 30.8627 41 30.3587 41ZM30.3587 40.1C30.6047 40.1 30.8147 40.013 30.9887 39.839C31.1687 39.659 31.2587 39.446 31.2587 39.2C31.2587 38.954 31.1687 38.744 30.9887 38.57C30.8147 38.39 30.6047 38.3 30.3587 38.3H28.0187V40.1H30.3587ZM30.3587 37.4C30.6047 37.4 30.8147 37.313 30.9887 37.139C31.1687 36.959 31.2587 36.746 31.2587 36.5C31.2587 36.254 31.1687 36.044 30.9887 35.87C30.8147 35.69 30.6047 35.6 30.3587 35.6H28.0187V37.4H30.3587Z" fill="#FF6347"/>
<path d="M33.4205 41V34.7H38.0105V35.6H34.3205V37.4H37.5605V38.3H34.3205V40.1H38.0105V41H33.4205Z" fill="#FF6347"/>
<path d="M40.5732 36.131C40.0992 36.605 39.8622 37.178 39.8622 37.85C39.8622 38.522 40.0992 39.095 40.5732 39.569C41.0472 40.043 41.6202 40.28 42.2922 40.28C42.9642 40.28 43.5372 40.043 44.0112 39.569C44.4852 39.095 44.7222 38.522 44.7222 37.85C44.7222 37.178 44.4852 36.605 44.0112 36.131C43.5372 35.657 42.9642 35.42 42.2922 35.42C41.6202 35.42 41.0472 35.657 40.5732 36.131ZM39.9342 40.208C39.2862 39.554 38.9622 38.768 38.9622 37.85C38.9622 36.932 39.2862 36.149 39.9342 35.501C40.5882 34.847 41.3742 34.52 42.2922 34.52C43.2462 34.52 44.0562 34.871 44.7222 35.573V34.7H45.6222V41H44.7222V40.127C44.0562 40.829 43.2462 41.18 42.2922 41.18C41.3742 41.18 40.5882 40.856 39.9342 40.208Z" fill="#FF6347"/>
<path d="M46.9732 38.66V34.7H47.8732V38.57C47.8732 39.062 48.0232 39.47 48.3232 39.794C48.6232 40.118 49.0432 40.28 49.5832 40.28C50.1232 40.28 50.5432 40.118 50.8432 39.794C51.1432 39.47 51.2932 39.062 51.2932 38.57V34.7H52.1932V38.66C52.1932 39.416 51.9472 40.025 51.4552 40.487C50.9632 40.949 50.3392 41.18 49.5832 41.18C48.8272 41.18 48.2032 40.949 47.7112 40.487C47.2192 40.025 46.9732 39.416 46.9732 38.66Z" fill="#FF6347"/>
<path d="M55.4824 41V35.6H53.2774V34.7H58.5874V35.6H56.3824V41H55.4824Z" fill="#FF6347"/>
<path d="M65.7396 34.7L62.9496 38.597V41H62.0496V38.597L59.2596 34.7H60.3576L62.4996 37.688L64.6416 34.7H65.7396Z" fill="#FF6347"/>
<path d="M72.1346 41L70.1096 38.3V41H69.2095V34.7H71.9995C72.5215 34.7 72.9656 34.886 73.3316 35.258C73.7036 35.624 73.8895 36.068 73.8895 36.59C73.8895 37.112 73.7036 37.559 73.3316 37.931C72.9656 38.297 72.5215 38.48 71.9995 38.48H71.3696L73.2596 41H72.1346ZM71.9995 35.6H70.1096V37.58H71.9995C72.2755 37.58 72.5095 37.484 72.7015 37.292C72.8935 37.1 72.9895 36.866 72.9895 36.59C72.9895 36.314 72.8935 36.08 72.7015 35.888C72.5095 35.696 72.2755 35.6 71.9995 35.6Z" fill="#FF6347"/>
<path d="M76.4941 36.131C76.0201 36.605 75.7831 37.178 75.7831 37.85C75.7831 38.522 76.0201 39.095 76.4941 39.569C76.9681 40.043 77.5411 40.28 78.2131 40.28C78.8851 40.28 79.4581 40.043 79.9321 39.569C80.4061 39.095 80.6431 38.522 80.6431 37.85C80.6431 37.178 80.4061 36.605 79.9321 36.131C79.4581 35.657 78.8851 35.42 78.2131 35.42C77.5411 35.42 76.9681 35.657 76.4941 36.131ZM75.8551 40.208C75.2071 39.554 74.8831 38.768 74.8831 37.85C74.8831 36.932 75.2071 36.149 75.8551 35.501C76.5091 34.847 77.2951 34.52 78.2131 34.52C79.1311 34.52 79.9141 34.847 80.5621 35.501C81.2161 36.149 81.5431 36.932 81.5431 37.85C81.5431 38.768 81.2161 39.554 80.5621 40.208C79.9141 40.856 79.1311 41.18 78.2131 41.18C77.2951 41.18 76.5091 40.856 75.8551 40.208Z" fill="#FF6347"/>
<path d="M84.1405 36.131C83.6665 36.605 83.4296 37.178 83.4296 37.85C83.4296 38.522 83.6665 39.095 84.1405 39.569C84.6145 40.043 85.1876 40.28 85.8596 40.28C86.5316 40.28 87.1046 40.043 87.5786 39.569C88.0526 39.095 88.2896 38.522 88.2896 37.85C88.2896 37.178 88.0526 36.605 87.5786 36.131C87.1046 35.657 86.5316 35.42 85.8596 35.42C85.1876 35.42 84.6145 35.657 84.1405 36.131ZM83.5015 40.208C82.8535 39.554 82.5295 38.768 82.5295 37.85C82.5295 36.932 82.8535 36.149 83.5015 35.501C84.1555 34.847 84.9416 34.52 85.8596 34.52C86.7776 34.52 87.5605 34.847 88.2085 35.501C88.8625 36.149 89.1896 36.932 89.1896 37.85C89.1896 38.768 88.8625 39.554 88.2085 40.208C87.5605 40.856 86.7776 41.18 85.8596 41.18C84.9416 41.18 84.1555 40.856 83.5015 40.208Z" fill="#FF6347"/>
<path d="M94.397 38.66H92.84L91.256 35.33V41H90.356V34.7H91.931L93.614 38.21L95.306 34.7H96.881V41H95.981V35.33L94.397 38.66Z" fill="#FF6347"/>
<path d="M0.746367 18.44H4.34637V19.16C4.34637 20.288 4.92237 21.236 6.07437 22.004C7.22637 22.748 8.81037 23.12 10.8264 23.12C12.8424 23.12 14.4264 22.748 15.5784 22.004C16.7304 21.236 17.3064 20.288 17.3064 19.16C17.3064 18.32 16.9824 17.648 16.3344 17.144C15.7104 16.616 14.8824 16.232 13.8504 15.992C12.8424 15.752 11.7264 15.548 10.5024 15.38C9.27837 15.188 8.05437 14.96 6.83037 14.696C5.60637 14.408 4.47837 14.036 3.44637 13.58C2.43837 13.124 1.61037 12.428 0.962367 11.492C0.338367 10.532 0.0263672 9.36796 0.0263672 7.99996C0.0263672 5.69596 0.998367 3.79996 2.94237 2.31196C4.91037 0.823956 7.53837 0.0799561 10.8264 0.0799561C14.1144 0.0799561 16.7304 0.823956 18.6744 2.31196C20.6424 3.79996 21.6264 5.69596 21.6264 7.99996V8.71996H18.0264V7.99996C18.0264 6.70396 17.3784 5.65996 16.0824 4.86796C14.8104 4.07596 13.0584 3.67996 10.8264 3.67996C8.59437 3.67996 6.83037 4.07596 5.53437 4.86796C4.26237 5.65996 3.62637 6.70396 3.62637 7.99996C3.62637 8.79196 3.93837 9.43996 4.56237 9.94396C5.21037 10.424 6.03837 10.784 7.04637 11.024C8.07837 11.264 9.20637 11.48 10.4304 11.672C11.6544 11.84 12.8784 12.08 14.1024 12.392C15.3264 12.68 16.4424 13.064 17.4504 13.544C18.4824 14 19.3104 14.708 19.9344 15.668C20.5824 16.628 20.9064 17.792 20.9064 19.16C20.9064 21.32 19.9944 23.12 18.1704 24.56C16.3464 26 13.8984 26.72 10.8264 26.72C7.75437 26.72 5.30637 26 3.48237 24.56C1.65837 23.12 0.746367 21.32 0.746367 19.16V18.44Z" fill="#FF6347"/>
<path d="M46.465 26H28.105V0.799955H31.705V22.4H46.465V26Z" fill="#FF6347"/>
<path d="M52.7565 26V0.799955H71.1165V4.39996H56.3565V11.6H69.3165V15.2H56.3565V22.4H71.1165V26H52.7565Z" fill="#FF6347"/>
<path d="M78.1464 26V0.799955H96.5064V4.39996H81.7464V11.6H94.7064V15.2H81.7464V22.4H96.5064V26H78.1464Z" fill="#FF6347"/>
<path d="M123.516 0.799955L108.576 11.96L124.236 26H118.836L107.136 15.488V26H103.536V0.799955H107.136V8.75596L117.684 0.799955H123.516Z" fill="#FF6347"/>
<path d="M129.677 6.48504C129.033 5.84104 128.711 5.06637 128.711 4.16104C128.711 3.25571 129.033 2.48104 129.677 1.83704C130.321 1.19304 131.095 0.871041 132.001 0.871041C132.906 0.871041 133.681 1.19304 134.325 1.83704C134.969 2.48104 135.291 3.25571 135.291 4.16104C135.291 5.06637 134.969 5.84104 134.325 6.48504C133.681 7.12904 132.906 7.45104 132.001 7.45104C131.095 7.45104 130.321 7.12904 129.677 6.48504ZM130.118 2.27804C129.6 2.79604 129.341 3.42371 129.341 4.16104C129.341 4.89837 129.6 5.52604 130.118 6.04404C130.64 6.56204 131.268 6.82104 132.001 6.82104C132.733 6.82104 133.359 6.56204 133.877 6.04404C134.399 5.52604 134.661 4.89837 134.661 4.16104C134.661 3.42371 134.399 2.79604 133.877 2.27804C133.359 1.76004 132.733 1.50104 132.001 1.50104C131.268 1.50104 130.64 1.76004 130.118 2.27804ZM133.296 5.91104L132.183 4.58104H132.561C132.864 4.58104 133.121 4.47604 133.331 4.26604C133.541 4.05604 133.646 3.79937 133.646 3.49604C133.646 3.19271 133.541 2.93604 133.331 2.72604C133.121 2.51604 132.864 2.41104 132.561 2.41104H130.636V5.91104H131.266V4.44104L132.484 5.91104H133.296ZM132.561 3.95104H131.266V3.04104H132.561C132.687 3.04104 132.794 3.08537 132.883 3.17404C132.971 3.26271 133.016 3.37004 133.016 3.49604C133.016 3.62204 132.971 3.72937 132.883 3.81804C132.794 3.90671 132.687 3.95104 132.561 3.95104Z" fill="#FF6347"/>
</g>
<defs>
<filter id="filter0_i" x="0.0263672" y="0.0799561" width="136.264" height="42.1" filterUnits="userSpaceOnUse" color-interpolation-filters="sRGB">
<feFlood flood-opacity="0" result="BackgroundImageFix"/>
<feBlend mode="normal" in="SourceGraphic" in2="BackgroundImageFix" result="shape"/>
<feColorMatrix in="SourceAlpha" type="matrix" values="0 0 0 0 0 0 0 0 0 0 0 0 0 0 0 0 0 0 127 0" result="hardAlpha"/>
<feOffset dx="1" dy="1"/>
<feGaussianBlur stdDeviation="0.5"/>
<feComposite in2="hardAlpha" operator="arithmetic" k2="-1" k3="1"/>
<feColorMatrix type="matrix" values="0 0 0 0 0 0 0 0 0 0 0 0 0 0 0 0 0 0 0.25 0"/>
<feBlend mode="normal" in2="shape" result="effect1_innerShadow"/>
</filter>
</defs>
</svg>
